<svg xmlns="http://www.w3.org/2000/svg" viewBox="0 0 800 500" fill="none">
  <defs>
    <linearGradient id="bg" x1="0" y1="0" x2="1" y2="1">
      <stop offset="0" stop-color="#EEF2FF"/>
      <stop offset="1" stop-color="#FDF2F8"/>
    </linearGradient>
    <linearGradient id="card" x1="0" y1="0" x2="1" y2="0">
      <stop offset="0" stop-color="#FFFFFF"/>
      <stop offset="1" stop-color="#F8FAFC"/>
    </linearGradient>
    <linearGradient id="accent" x1="0" y1="0" x2="1" y2="1">
      <stop offset="0" stop-color="#6366F1"/>
      <stop offset="1" stop-color="#22C55E"/>
    </linearGradient>
  </defs>

  <rect width="800" height="500" rx="36" fill="url(#bg)"/>

  <rect x="70" y="60" width="660" height="380" rx="24" fill="url(#card)" stroke="#E2E8F0" stroke-width="2"/>

  <rect x="110" y="110" width="250" height="20" rx="10" fill="#C7D2FE"/>
  <rect x="110" y="145" width="200" height="14" rx="7" fill="#E2E8F0"/>
  <rect x="110" y="175" width="220" height="14" rx="7" fill="#E2E8F0"/>
  <rect x="110" y="215" width="160" height="28" rx="14" fill="url(#accent)"/>

  <rect x="410" y="110" width="280" height="170" rx="18" fill="#ECFEFF" stroke="#CFFAFE" stroke-width="2"/>
  <path d="M435 250l55-70 48 40 62-88 70 110" stroke="#0EA5E9" stroke-width="9" stroke-linecap="round" stroke-linejoin="round"/>
  <circle cx="515" cy="185" r="9" fill="#0EA5E9"/>
  <circle cx="563" cy="225" r="9" fill="#0EA5E9"/>
  <circle cx="625" cy="137" r="9" fill="#0EA5E9"/>

  <rect x="110" y="280" width="580" height="60" rx="16" fill="#F1F5F9" stroke="#E2E8F0" stroke-width="2"/>
  <rect x="140" y="300" width="140" height="22" rx="11" fill="#A7F3D0"/>
  <rect x="300" y="300" width="120" height="22" rx="11" fill="#93C5FD"/>
  <rect x="440" y="300" width="160" height="22" rx="11" fill="#FDE68A"/>

  <rect x="110" y="360" width="520" height="12" rx="6" fill="#E2E8F0"/>
  <rect x="110" y="380" width="380" height="10" rx="5" fill="#CBD5F5"/>
</svg>
