<svg xmlns="http://www.w3.org/2000/svg" viewBox="0 0 800 500" fill="none">
  <rect width="800" height="500" rx="32" fill="#F8FAFC"/>
  <rect x="60" y="70" width="680" height="360" rx="20" fill="#FFFFFF" stroke="#E2E8F0" stroke-width="2"/>
  <rect x="110" y="120" width="240" height="18" rx="9" fill="#CBD5F5"/>
  <rect x="110" y="155" width="180" height="14" rx="7" fill="#E2E8F0"/>
  <rect x="110" y="190" width="210" height="14" rx="7" fill="#E2E8F0"/>
  <rect x="110" y="240" width="200" height="20" rx="10" fill="#3B82F6"/>
  <rect x="110" y="280" width="240" height="14" rx="7" fill="#E2E8F0"/>
  <rect x="110" y="315" width="190" height="14" rx="7" fill="#E2E8F0"/>

  <rect x="420" y="120" width="260" height="140" rx="16" fill="#EFF6FF" stroke="#DBEAFE" stroke-width="2"/>
  <path d="M455 235l45-50 38 32 54-70 68 88" stroke="#2563EB" stroke-width="8" stroke-linecap="round" stroke-linejoin="round"/>
  <circle cx="520" cy="180" r="8" fill="#2563EB"/>
  <circle cx="558" cy="212" r="8" fill="#2563EB"/>
  <circle cx="612" cy="142" r="8" fill="#2563EB"/>

  <rect x="420" y="290" width="260" height="90" rx="16" fill="#F1F5F9" stroke="#E2E8F0" stroke-width="2"/>
  <rect x="450" y="320" width="60" height="40" rx="8" fill="#94A3B8"/>
  <rect x="520" y="310" width="50" height="50" rx="8" fill="#60A5FA"/>
  <rect x="580" y="330" width="70" height="30" rx="8" fill="#93C5FD"/>

  <rect x="60" y="430" width="680" height="14" rx="7" fill="#E2E8F0"/>
  <rect x="60" y="450" width="520" height="10" rx="5" fill="#CBD5F5"/>
</svg>
